# Blender v2.77 (sub 0) OBJ File: ''
# www.blender.org
mtllib Sargasso Seeker Missile.mtl
o Mesh_0691
v 0.416900 -0.096200 0.655600
v 0.254100 -0.053501 3.254500
v 0.291700 -0.312900 0.655600
v 0.173400 -0.193301 3.254500
v 0.533800 -0.091300 0.606800
v 0.346000 -0.416700 0.606800
v 0.240600 -0.278801 3.335200
v 0.361700 -0.069001 3.335200
v -0.416900 -0.096200 0.655600
v -0.291700 -0.312900 0.655600
v -0.254100 -0.053501 3.254500
v -0.173400 -0.193301 3.254500
v -0.533800 -0.091300 0.606800
v -0.346000 -0.416700 0.606800
v -0.240600 -0.278801 3.335200
v -0.361700 -0.069001 3.335200
v -0.193100 -0.334401 3.493200
v 0.299500 -0.518700 0.479600
v 0.193100 -0.334401 3.493200
v 0.131900 -0.150400 -2.067700
v 0.423200 -0.032900 -2.642400
v 0.263800 -0.004700 -2.067700
v 0.131900 0.182100 -2.067700
v -0.263800 -0.004700 -2.067700
v -0.423200 -0.032900 -2.642400
v -0.131900 -0.150400 -2.067700
v -0.233900 -0.386500 -2.642400
v 0.233900 -0.386500 -2.642400
v -0.131900 0.182100 -2.067700
v -0.600600 0.346800 -2.173200
v -0.173000 -0.000000 0.005000
v -0.503200 0.290500 -0.100600
v -0.086500 0.112500 0.005000
v 0.086500 0.112500 0.005000
v 0.600600 0.346800 -2.173200
v 0.503200 0.290500 -0.100600
v 0.173000 -0.000000 0.005000
v -0.172800 0.270101 -3.097200
v 0.172800 0.270101 -3.097200
v -0.348800 -0.032899 -3.097200
v 0.348800 -0.032899 -3.097200
v -0.172800 -0.335900 -3.097200
v 0.172800 -0.335900 -3.097200
v -0.125400 0.853700 -2.891800
v 0.125400 0.853700 -2.891800
v -0.098300 0.812001 -3.297600
v 0.098300 0.812001 -3.297600
v 0.233900 0.320700 -2.642400
v -0.233900 0.320700 -2.642400
v 0.086500 -0.112500 0.005000
v 0.000000 -0.668300 -2.173200
v 0.000000 -0.555800 -0.100600
v -0.086500 -0.112500 0.005000
v 0.598900 -0.000000 0.479600
v -0.299500 -0.518700 0.479600
v -0.598900 -0.000000 0.479600
v 0.299500 0.518700 0.479600
v -0.299500 0.518700 0.479600
v -0.386100 -0.000001 3.493200
v 0.125100 0.409100 0.655600
v -0.125100 0.409100 0.655600
v 0.080700 0.246899 3.254500
v -0.080700 0.246899 3.254500
v -0.193100 0.334399 3.493200
v 0.386100 -0.000001 3.493200
v 0.193100 0.334399 3.493200
v -0.182100 -0.145201 3.843200
v 0.000000 0.145199 3.843200
v -0.121100 0.347699 3.335200
v 0.121100 0.347699 3.335200
v -0.187900 0.507900 0.606800
v 0.187900 0.507900 0.606800
v 0.182100 -0.145201 3.843200
v -0.705100 -0.584800 -2.891800
v -0.830500 -0.367600 -2.891800
v -0.682600 -0.540399 -3.297600
v -0.780900 -0.370299 -3.297600
v 0.705100 -0.584800 -2.891800
v 0.682600 -0.540399 -3.297600
v 0.830500 -0.367600 -2.891800
v 0.780900 -0.370299 -3.297600
vt -1.2813 -0.6250
vt -1.7188 -0.6250
vt -1.2813 -0.3438
vt -1.7188 -0.3438
vt -0.3125 -0.1250
vt -0.3281 -0.1563
vt -0.3125 -0.2500
vt -0.3281 -0.2188
vt -0.8125 -0.2500
vt -0.7969 -0.2188
vt -0.8125 -0.1250
vt -0.7969 -0.1563
vt -1.2813 -0.6250
vt -1.2813 -0.3438
vt -1.7188 -0.6250
vt -1.7188 -0.3438
vt -0.3125 -0.8750
vt -0.3125 -0.7500
vt -0.3281 -0.8497
vt -0.3281 -0.7785
vt -0.8125 -0.7500
vt -0.7969 -0.7785
vt -0.8125 -0.8750
vt -0.7969 -0.8497
vt -0.8438 -0.6875
vt -0.2813 -0.3125
vt -0.8438 -0.3125
vt -1.0000 -1.5625
vt -0.2813 -1.9063
vt -1.0000 -1.9063
vt -1.0000 -1.5625
vt -1.0000 -1.9063
vt -0.2813 -1.9063
vt -1.0000 -1.5625
vt -0.2813 -1.5625
vt -0.2813 -1.5625
vt -2.0000 0.0000
vt -1.9063 0.0000
vt -1.9531 -1.0000
vt -0.9844 -2.0000
vt -0.9844 -0.2813
vt -1.2656 -2.0000
vt -1.2656 -0.2813
vt -2.0000 0.0000
vt -1.9063 0.0000
vt -1.9531 -1.0000
vt -0.9844 -0.2813
vt -0.9844 -2.0000
vt -0.9219 -2.0000
vt -0.9219 -0.2813
vt -0.9844 -2.0000
vt -0.9844 -0.2813
vt -1.2656 -2.0000
vt -1.2656 -0.2813
vt -2.0000 0.0000
vt -1.9063 0.0000
vt -1.9531 -1.0000
vt -2.0000 0.0000
vt -1.9063 0.0000
vt -1.9531 -1.0000
vt -0.9844 -0.2813
vt -0.9844 -2.0000
vt 0.0000 -1.5625
vt 0.0000 -1.5625
vt 0.0000 -1.9063
vt 0.0000 -1.9063
vt 0.0000 -1.5625
vt 0.0000 -1.5625
vt -0.2813 -0.9063
vt -0.2813 -0.9063
vt 0.0000 -0.9063
vt 0.0000 -0.9063
vt -0.2813 -1.5625
vt -0.2813 -1.5625
vt -1.0000 -1.5625
vt -1.0781 -1.1563
vt -1.0781 -0.3125
vt -1.2344 -1.1563
vt -1.2344 -0.3125
vt -1.2344 -0.3125
vt -1.0781 -0.3125
vt -1.2344 -1.1563
vt -1.0781 -1.1563
vt -0.9219 -2.0000
vt -0.9219 -0.2813
vt -0.9844 -2.0000
vt -0.9844 -0.2813
vt -1.2656 -2.0000
vt -1.2656 -0.2813
vt -0.9219 -0.2813
vt -0.9219 -2.0000
vt -0.9844 -0.2813
vt -0.9844 -2.0000
vt -2.0000 0.0000
vt -1.9063 0.0000
vt -1.9531 -1.0000
vt -2.0000 0.0000
vt -1.9063 0.0000
vt -1.9531 -1.0000
vt -0.2813 -0.9375
vt -0.2813 -0.6875
vt 0.2188 -0.6875
vt -0.2813 -0.3125
vt 0.2188 -0.3125
vt -0.2813 -0.0625
vt 0.2188 -0.0625
vt 0.2188 -0.3125
vt 0.2188 -0.9375
vt 0.2188 -0.6875
vt -0.2813 -0.6875
vt -0.2813 -0.3125
vt -0.8438 -0.0625
vt -1.2813 -0.6250
vt -1.2813 -0.3438
vt -1.7188 -0.6250
vt -1.7188 -0.3438
vt -0.8438 -0.3125
vt -0.8438 -0.9375
vt -0.8438 -0.6875
vt -0.8438 -0.3125
vt -0.9688 -0.3125
vt -0.8438 -0.6875
vt -0.9688 -0.5000
vt -0.8125 -0.3750
vt -0.8125 -0.5938
vt -0.3125 -0.3750
vt -0.3125 -0.5938
vt -0.3281 -0.5313
vt -0.3281 -0.4375
vt -0.7969 -0.4375
vt -0.7969 -0.5313
vt -0.9688 -0.6875
vt -0.9688 -0.9375
vt -0.8438 -0.9375
vt -0.8438 -0.6875
vt -0.2813 -0.9063
vt -0.2813 -0.9063
vt 0.0000 -0.9063
vt 0.0000 -0.9063
vt -1.2344 -0.3125
vt -1.0781 -0.3125
vt -1.2344 -1.1563
vt -1.0781 -1.1563
vt -0.2813 -1.5625
vt 0.0000 -1.5625
vt -1.2344 -0.3125
vt -1.0781 -0.3125
vt -1.2344 -1.1563
vt -1.0781 -1.1563
vt -0.2813 -1.9063
vt 0.0000 -1.9063
vt -0.2813 -0.9063
vt 0.0000 -0.9063
vt -0.2813 -0.9063
vt 0.0000 -0.9063
vt -1.2344 -0.3125
vt -1.0781 -0.3125
vt -1.2344 -1.1563
vt -1.0781 -1.1563
vt -0.2813 -1.5625
vt 0.0000 -1.5625
vt -1.0781 -1.1563
vt -1.0781 -0.3125
vt -1.2344 -1.1563
vt -1.2344 -0.3125
vt -0.9688 -0.6875
vt -0.9688 -0.3125
vt -0.8438 -0.9375
vt -0.2813 -0.9375
vt -0.2813 -0.6875
vt -0.2813 -0.0625
vt -0.8438 -0.0625
vn 0.8642 -0.4993 0.0623
vn 0.8644 -0.4990 0.0623
vn 0.3836 -0.2214 0.8966
vn 0.3830 -0.2213 0.8969
vn 0.8882 0.4594 0.0111
vn 0.8863 0.4630 0.0110
vn 0.7880 0.6156 0.0072
vn 0.7830 0.6220 0.0070
vn 0.5408 -0.3122 -0.7811
vn -0.1419 -0.9899 -0.0009
vn -0.1382 -0.9904 -0.0005
vn 0.0427 -0.9989 0.0188
vn 0.0500 -0.9986 0.0195
vn -0.8642 -0.4993 0.0623
vn -0.8644 -0.4989 0.0623
vn -0.8644 -0.4990 0.0623
vn -0.3836 -0.2214 0.8966
vn -0.3831 -0.2213 0.8968
vn -0.3833 -0.2213 0.8967
vn -0.3830 -0.2213 0.8969
vn -0.3835 -0.2214 0.8966
vn -0.8882 0.4594 0.0111
vn -0.7830 0.6220 0.0070
vn -0.5408 -0.3122 -0.7811
vn 0.1419 -0.9899 -0.0009
vn -0.0427 -0.9989 0.0188
vn 0.1382 -0.9904 -0.0005
vn -0.0500 -0.9986 0.0195
vn 0.0000 -0.9981 0.0610
vn 0.7977 -0.5996 0.0648
vn 0.2045 -0.9766 0.0663
vn 0.8775 -0.4759 0.0600
vn 0.2045 -0.9766 0.0662
vn 0.8365 -0.5446 0.0598
vn 0.7211 -0.6528 0.2320
vn 0.9634 -0.0125 0.2678
vn 0.9621 -0.0441 0.2690
vn 0.8013 0.5658 0.1945
vn -0.7211 -0.6528 0.2320
vn -0.8139 -0.4898 0.3124
vn -0.4247 -0.8314 0.3584
vn -0.4579 -0.7908 0.4061
vn 0.2462 -0.8804 0.4054
vn 0.4579 -0.7908 0.4061
vn 0.8320 -0.4454 0.3307
vn 0.1761 -0.1243 -0.9765
vn -0.7266 -0.6862 0.0334
vn -0.6735 -0.7390 0.0146
vn -0.7175 -0.6959 0.0300
vn -0.6624 -0.7490 0.0108
vn -0.1855 0.1426 0.9722
vn 0.3914 0.9202 0.0066
vn 0.3806 0.9247 0.0096
vn 0.3365 0.9414 0.0218
vn 0.3265 0.9449 0.0246
vn 0.0000 0.9994 0.0336
vn -0.1785 0.9835 0.0291
vn -0.1750 0.9843 0.0232
vn -0.3365 0.9414 0.0218
vn -0.3914 0.9202 0.0066
vn -0.1761 -0.1243 -0.9765
vn 0.1855 0.1426 0.9722
vn 0.6624 -0.7490 0.0108
vn 0.6735 -0.7390 0.0146
vn 0.7175 -0.6959 0.0300
vn 0.7266 -0.6862 0.0334
vn 0.0000 0.0000 -1.0000
vn 0.0000 0.9948 -0.1022
vn 0.8522 0.4950 -0.1696
vn 0.8643 0.4788 -0.1539
vn 0.8616 0.4825 -0.1574
vn 0.8726 0.4671 -0.1427
vn -0.8522 0.4950 -0.1696
vn -0.8616 0.4825 -0.1574
vn -0.8770 0.4780 0.0483
vn -0.8738 0.4840 0.0461
vn -0.8218 0.5256 0.2199
vn -0.8013 0.5658 0.1945
vn 0.0000 0.4238 0.9057
vn 0.9834 0.1617 -0.0823
vn 0.9864 0.1141 -0.1185
vn 0.9859 0.1279 -0.1081
vn 0.9864 0.0832 -0.1418
vn 0.0000 -0.3469 -0.9379
vn -0.9912 0.1077 -0.0773
vn -0.9805 0.1311 -0.1463
vn 0.0000 0.9721 0.2344
vn 0.7409 -0.6707 0.0340
vn 0.7895 -0.6130 0.0288
vn 0.8873 -0.4601 0.0304
vn 0.9003 -0.4348 0.0221
vn 0.9697 -0.2430 0.0235
vn 0.9810 -0.1939 0.0105
vn -0.7922 -0.6091 0.0361
vn -0.7434 -0.6682 0.0288
vn -0.8205 -0.5706 0.0347
vn -0.8866 -0.4616 0.0279
vn -0.9675 -0.2517 0.0258
vn 0.0000 0.1996 -0.9799
vn 0.0000 -0.2317 0.9728
vn -0.9810 -0.1939 0.0105
vn 0.8511 0.4556 0.2609
vn 0.6708 -0.3872 -0.6325
vn 0.3554 -0.6253 -0.6947
vn 0.2318 -0.6852 -0.6905
vn -0.3554 -0.6253 -0.6947
vn -0.3512 -0.6485 -0.6753
vn -0.6979 -0.3009 -0.6500
vn -0.3512 -0.6486 -0.6753
vn -0.7443 -0.0000 -0.6679
vn -0.6978 -0.3009 -0.6500
vn -0.6460 0.4967 -0.5797
vn 0.6460 -0.4967 -0.5797
vn 0.7443 -0.0000 -0.6679
vn 0.6978 0.3009 -0.6500
vn 0.3512 0.6485 -0.6753
vn 0.6979 0.3009 -0.6500
vn 0.3512 0.6486 -0.6753
vn 0.3554 0.6253 -0.6947
vn -0.2318 0.6852 -0.6905
vn -0.6170 0.6448 -0.4511
vn -0.8417 0.4858 -0.2358
vn -0.6170 0.6449 -0.4511
vn -0.8645 0.4990 0.0610
vn 0.0000 0.9981 0.0623
vn -0.8645 0.4989 0.0610
vn 0.8645 0.4989 0.0610
vn -0.8302 -0.4791 0.2851
vn -0.8435 0.0911 0.5294
vn -0.8411 0.0802 0.5350
vn -0.4926 0.6304 0.5999
vn -0.8410 0.0802 0.5350
vn -0.3049 0.8349 0.4582
vn -0.4926 0.6304 0.6000
vn 0.0000 0.9590 0.2835
vn 0.0000 0.9965 0.0839
vn 0.0000 0.9964 0.0846
vn -0.0529 0.9968 0.0598
vn 0.0273 0.9978 0.0600
vn -0.0464 0.9971 0.0599
vn 0.0276 0.9978 0.0600
vn 0.0281 0.9978 0.0600
vn 0.0529 0.9968 0.0598
vn 0.0464 0.9971 0.0599
vn -0.0273 0.9978 0.0600
vn -0.0281 0.9978 0.0600
vn -0.0276 0.9978 0.0600
vn 0.0000 0.4429 0.8966
vn 0.8414 0.5403 0.0111
vn 0.9271 0.3748 0.0072
vn 0.8436 0.5369 0.0110
vn 0.9301 0.3672 0.0070
vn 0.0000 0.6250 -0.7806
vn -0.9280 0.3726 -0.0008
vn -0.8434 0.5370 0.0188
vn -0.9266 0.3761 -0.0004
vn -0.8394 0.5432 0.0196
vn 0.6894 0.4323 0.5812
vn 0.6919 0.4139 0.5916
vn 0.6914 0.4176 0.5895
vn 0.6935 0.4003 0.5990
vn 0.0000 -0.8797 0.4755
vn 0.3516 -0.8189 0.4537
vn 0.4029 -0.7998 0.4450
vn 0.8302 -0.4791 0.2851
vn -0.8615 -0.4974 -0.1022
vn -0.8614 -0.4976 -0.1020
vn -0.8613 -0.4977 -0.1020
vn -0.3745 -0.2162 0.9017
vn -0.3796 -0.2130 0.9003
vn -0.3842 -0.2100 0.8990
vn -0.3879 -0.2077 0.8980
vn -0.6036 0.7934 -0.0791
vn -0.5921 0.8009 -0.0892
vn -0.5953 0.7989 -0.0864
vn -0.5847 0.8056 -0.0956
vn 0.2994 0.1730 -0.9383
vn 0.2994 0.1734 -0.9383
vn 0.2994 0.1737 -0.9382
vn 0.2994 0.1733 -0.9383
vn 0.2993 0.1739 -0.9382
vn 0.4205 -0.9041 -0.0756
vn 0.4062 -0.9115 -0.0641
vn 0.1932 -0.9772 -0.0886
vn 0.2014 -0.9761 -0.0815
vn 0.0000 -0.9939 -0.1106
vn 0.8615 -0.4974 -0.1022
vn 0.8614 -0.4976 -0.1020
vn 0.8613 -0.4977 -0.1020
vn 0.8614 -0.4975 -0.1021
vn 0.3821 -0.2206 0.8974
vn 0.3825 -0.2147 0.8987
vn 0.3828 -0.2092 0.8998
vn 0.3830 -0.2050 0.9007
vn 0.6036 0.7934 -0.0791
vn 0.5953 0.7989 -0.0864
vn 0.5921 0.8009 -0.0892
vn 0.5847 0.8056 -0.0956
vn -0.2993 0.1739 -0.9382
vn -0.2994 0.1733 -0.9383
vn -0.2994 0.1730 -0.9383
vn -0.2994 0.1736 -0.9382
vn -0.3887 -0.9200 -0.0501
vn -0.4062 -0.9115 -0.0641
vn -0.4010 -0.9141 -0.0599
vn -0.4205 -0.9041 -0.0756
vn 0.0000 0.0000 1.0000
vn -0.8630 -0.4981 0.0842
vn -0.8790 -0.4717 0.0703
vn -0.8702 -0.4866 0.0773
vn -0.8789 -0.4717 0.0703
vn -0.8569 -0.5105 0.0717
vn -0.8575 -0.5091 0.0734
vn -0.8630 -0.4981 0.0840
vn 0.8631 -0.4981 0.0839
vn 0.8560 -0.5121 0.0706
vn 0.8630 -0.4981 0.0841
vn 0.8577 -0.5090 0.0725
vn 0.8769 -0.4753 0.0718
vn 0.8702 -0.4865 0.0780
vn 0.8630 -0.4981 0.0843
vn 0.8630 -0.4981 0.0842
vn 0.8645 0.4990 0.0610
vn -0.6547 -0.7527 0.0690
vn -0.3066 -0.9494 0.0682
vn -0.6547 -0.7527 0.0691
vn -0.8403 -0.5385 0.0626
vn -0.3066 -0.9494 0.0681
vn -0.8792 -0.4730 0.0579
usemtl Tex_0123_0_png
s 1
f 1/1/1 2/2/1 3/3/1
f 2/2/2 4/4/2 3/3/2
f 5/5/3 1/6/3 6/7/3
f 1/6/4 3/8/4 6/7/4
f 6/7/5 3/8/6 7/9/7
f 3/8/6 4/10/8 7/9/7
f 7/9/9 4/10/9 8/11/9
f 4/10/9 2/12/9 8/11/9
f 8/11/10 2/12/11 5/5/12
f 2/12/11 1/6/13 5/5/12
f 9/13/14 10/14/14 11/15/15
f 10/14/14 12/16/16 11/15/16
f 13/17/17 14/18/18 9/19/17
f 14/18/19 10/20/20 9/19/21
f 14/18/22 15/21/22 10/20/22
f 15/21/23 12/22/23 10/20/23
f 15/21/24 16/23/24 12/22/24
f 16/23/24 11/24/24 12/22/24
f 16/23/25 13/17/26 11/24/27
f 13/17/26 9/19/28 11/24/27
f 17/25/29 18/26/30 19/27/31
f 18/26/30 6/7/32 19/27/31
f 19/27/33 6/7/32 7/9/34
f 20/28/35 21/29/36 22/30/37
f 21/29/36 23/31/38 22/30/37
f 24/32/39 25/33/40 26/34/41
f 25/33/40 27/35/42 26/34/41
f 26/34/41 27/35/42 20/28/43
f 27/35/42 28/36/44 20/28/43
f 20/28/43 28/36/44 21/29/45
f 29/37/46 24/38/46 30/39/46
f 24/40/47 31/41/48 30/42/49
f 31/41/48 32/43/50 30/42/49
f 31/44/51 33/45/51 32/46/51
f 32/43/52 33/47/53 30/42/54
f 33/47/53 29/48/55 30/42/54
f 29/49/56 33/50/56 23/51/57
f 33/50/56 34/52/58 23/51/57
f 23/51/57 34/52/58 35/53/59
f 34/52/58 36/54/60 35/53/59
f 22/55/61 23/56/61 35/57/61
f 34/58/62 37/59/62 36/60/62
f 36/54/63 37/61/64 35/53/65
f 37/61/64 22/62/66 35/53/65
f 38/63/67 39/64/67 40/65/67
f 39/64/67 41/66/67 40/65/67
f 40/65/67 41/66/67 42/67/67
f 41/66/67 43/68/67 42/67/67
f 44/69/68 45/70/68 46/71/68
f 45/70/68 47/72/68 46/71/68
f 39/64/69 48/73/70 41/66/71
f 48/73/70 21/29/72 41/66/71
f 38/63/73 40/65/74 49/74/75
f 40/65/74 25/33/76 49/74/75
f 49/74/75 25/33/76 29/75/77
f 25/33/76 24/32/78 29/75/77
f 48/76/79 45/77/79 49/78/79
f 45/77/79 44/79/79 49/78/79
f 45/70/80 48/73/81 47/72/82
f 48/73/81 39/64/83 47/72/82
f 46/80/84 47/81/84 38/82/84
f 47/81/84 39/83/84 38/82/84
f 46/71/85 38/63/85 44/69/85
f 38/63/86 49/74/86 44/69/86
f 29/75/87 23/31/87 49/74/87
f 23/31/87 48/73/87 49/74/87
f 22/84/88 37/85/89 20/86/90
f 37/85/89 50/87/91 20/86/90
f 20/86/90 50/87/91 51/88/92
f 50/87/91 52/89/93 51/88/92
f 31/90/94 24/91/95 53/92/96
f 24/91/95 26/93/97 53/92/96
f 53/92/96 26/93/97 51/88/98
f 26/94/99 20/95/99 51/96/99
f 50/97/100 53/98/100 52/99/100
f 52/89/101 53/92/101 51/88/101
f 23/31/102 21/29/102 48/73/102
f 54/100/103 18/101/104 50/102/105
f 18/101/104 55/103/106 50/102/105
f 50/102/105 55/103/106 53/104/107
f 55/103/106 56/105/108 53/104/109
f 53/104/107 56/105/108 31/106/110
f 56/105/111 33/107/112 31/106/110
f 50/102/113 37/108/114 54/100/115
f 37/108/114 34/109/116 54/100/117
f 54/100/117 34/109/118 57/110/119
f 34/109/116 33/107/120 57/110/119
f 57/110/119 33/107/120 58/111/121
f 33/107/120 56/105/122 58/111/123
f 58/111/123 56/105/122 59/112/124
f 60/113/125 61/114/125 62/115/125
f 61/114/125 63/116/125 62/115/125
f 64/117/126 58/111/126 59/112/126
f 65/118/127 57/110/127 66/119/127
f 17/120/128 67/121/129 59/122/130
f 67/121/129 68/123/131 59/122/132
f 59/122/132 68/123/131 64/117/133
f 68/123/134 66/119/135 64/117/133
f 64/117/133 66/119/135 69/124/136
f 66/119/135 70/125/136 69/124/136
f 71/126/137 72/127/137 58/111/137
f 72/127/137 57/110/137 58/111/137
f 69/124/138 71/126/139 64/117/140
f 71/126/141 58/111/142 64/117/140
f 70/125/143 66/119/144 72/127/145
f 66/119/144 57/110/146 72/127/147
f 72/127/148 71/126/148 60/128/148
f 71/126/148 61/129/148 60/128/148
f 71/126/149 69/124/150 61/129/151
f 69/124/150 63/130/152 61/129/151
f 69/124/153 70/125/153 63/130/153
f 70/125/153 62/131/153 63/130/153
f 70/125/154 72/127/155 62/131/156
f 72/127/155 60/128/157 62/131/156
f 73/132/158 65/118/159 68/123/160
f 65/118/159 66/119/161 68/123/160
f 67/133/162 17/134/162 73/132/163
f 17/134/162 19/135/164 73/132/163
f 73/132/163 19/135/164 65/118/165
f 74/136/166 75/137/166 76/138/167
f 75/137/168 77/139/168 76/138/168
f 75/140/169 74/141/170 25/142/171
f 74/141/170 27/143/172 25/142/171
f 75/137/173 25/144/174 77/139/175
f 25/144/174 40/145/176 77/139/175
f 76/146/177 77/147/178 42/148/179
f 77/147/180 40/149/181 42/148/181
f 74/136/182 76/138/183 27/35/184
f 76/138/183 42/67/185 27/35/184
f 27/35/184 42/67/185 28/150/186
f 42/67/185 43/151/186 28/150/186
f 78/152/187 79/153/188 80/154/187
f 79/153/189 81/155/189 80/154/190
f 78/156/191 80/157/192 28/158/193
f 80/157/192 21/159/194 28/158/193
f 80/154/195 81/155/196 21/160/197
f 81/155/196 41/161/198 21/160/197
f 41/162/199 81/163/200 43/164/199
f 81/163/201 79/165/201 43/164/202
f 43/68/203 79/153/204 28/36/205
f 79/153/204 78/152/206 28/36/205
f 68/123/207 67/166/207 73/167/207
f 15/21/208 17/25/208 16/23/209
f 17/25/208 59/168/210 16/23/211
f 16/23/211 59/168/210 13/17/212
f 59/168/210 56/169/213 13/17/212
f 13/17/212 56/169/213 14/18/208
f 56/169/213 55/170/214 14/18/214
f 6/7/215 18/26/215 5/5/216
f 18/26/217 54/171/218 5/5/216
f 5/5/216 54/171/218 8/11/219
f 54/171/218 65/172/220 8/11/219
f 8/11/219 65/172/220 7/9/221
f 65/172/220 19/27/222 7/9/222
f 57/110/223 65/118/223 54/100/223
f 18/26/29 17/25/224 55/170/225
f 17/25/226 15/21/227 55/170/225
f 55/170/228 15/21/227 14/18/229
